<svg width="273" height="563" viewBox="0 0 273 563" fill="none" xmlns="http://www.w3.org/2000/svg">
<g clip-path="url(#clip0_107_1123)">
<path d="M185.099 54.7212C182.898 50.8671 177.509 49.9434 174.958 46.3123C172.008 42.1398 173.762 35.7853 170.477 31.8676C168.323 29.7326 165.413 28.531 162.378 28.5232C159.374 28.5254 156.379 28.1942 153.449 27.5358C148.267 25.9432 144.52 20.9425 139.226 19.7799C136.373 19.3008 133.442 19.8688 130.974 21.3792C128.507 22.8895 126.669 25.2402 125.801 27.9976C125.492 29.0314 125.331 30.1038 125.323 31.1828C123.966 31.183 122.624 31.4665 121.383 32.015C120.142 32.5635 119.029 33.3649 118.116 34.3679C116.203 36.5179 115.326 39.4324 113.333 41.5346C111.34 43.6368 108.247 44.9268 106.588 47.4271C105.735 48.8364 105.192 50.4107 104.994 52.0456C104.101 57.3967 104.611 63.2893 107.96 67.5574C111.308 71.8255 118.02 73.657 122.309 70.4081C122.309 70.4081 152.604 84.7414 158.806 88.5636C161.923 90.4218 165.53 91.2946 169.152 91.0672C172.775 90.8398 176.244 89.5229 179.103 87.2895C179.736 86.8651 180.275 86.3153 180.687 85.6742C181.098 85.0332 181.373 84.3145 181.495 83.5628C181.333 82.0662 180.878 80.616 180.156 79.2947C178.737 75.1859 181.065 70.8222 183.137 66.984C185.21 63.1459 187.251 58.5115 185.099 54.7212Z" fill="#333333"/>
<path d="M112.392 57.7789C114.72 43.159 129.309 18.681 155.219 33.7468C163.382 38.5246 166.858 47.1245 168.5 56.043C169.664 62.3019 167.448 120.288 167.448 120.288C165.63 143.062 130.043 146.502 127.747 120.129L128.448 103.741C109.666 97.7687 109.793 74.2144 112.392 57.7789Z" fill="#F9C4B4"/>
<path d="M128.448 103.789C128.448 103.789 139.051 107.324 159.061 94.902C151.203 105.5 140.321 113.477 127.842 117.787L128.448 103.789Z" fill="#333333"/>
<path d="M181.942 65.5189C181.594 62.8126 180.196 60.3509 178.049 58.6647C175.901 56.9785 173.176 56.2028 170.462 56.5048C169.122 56.6398 167.823 57.0385 166.639 57.678C165.454 58.3175 164.409 59.185 163.562 60.2305C162.716 61.276 162.085 62.4787 161.707 63.7691C161.328 65.0595 161.209 66.412 161.357 67.7485C161.7 70.4554 163.098 72.9182 165.247 74.6026C167.396 76.2871 170.123 77.0574 172.837 76.7466C174.176 76.6136 175.475 76.2167 176.659 75.5789C177.843 74.9411 178.889 74.075 179.736 73.0308C180.582 71.9866 181.213 70.785 181.592 69.4955C181.971 68.2061 182.089 66.8545 181.942 65.5189Z" fill="#F9C4B4"/>
<path d="M173.491 62.2063C172.749 62.4553 172.038 62.7865 171.37 63.1937C170.169 63.9375 169.133 64.9184 168.325 66.0763C167.896 66.7264 167.538 67.4205 167.257 68.1466C166.877 67.3268 166.821 66.3946 167.097 65.5348C167.358 64.6535 167.848 63.8568 168.516 63.2255C169.183 62.6055 169.994 62.162 170.876 61.9356C171.752 61.703 172.682 61.7993 173.491 62.2063Z" fill="#251B2D"/>
<path d="M142.368 53.5745C142.368 54.4823 140.949 55.1671 139.322 55.0237C137.696 54.8804 136.42 54.0682 136.484 53.1604C136.548 52.2527 137.919 51.5678 139.545 51.7112C141.172 51.8545 142.431 52.6667 142.368 53.5745Z" fill="#371C09"/>
<path d="M123.585 53.0012C123.505 53.9089 122.134 54.5937 120.508 54.3708C118.882 54.1478 117.654 53.3197 117.734 52.4119C117.813 51.5041 119.184 50.8193 120.795 51.0423C122.405 51.2652 123.665 52.0456 123.585 53.0012Z" fill="#371C09"/>
<g style="mix-blend-mode:soft-light" opacity="0.46">
<path d="M149.287 88.7706C155.249 88.7706 160.082 83.9434 160.082 77.9888C160.082 72.0342 155.249 67.207 149.287 67.207C143.326 67.207 138.493 72.0342 138.493 77.9888C138.493 83.9434 143.326 88.7706 149.287 88.7706Z" fill="#333333"/>
</g>
<path d="M120.014 61.8081C120.014 62.9229 120.412 63.8626 121.05 63.9104C121.688 63.9581 122.294 63.0822 122.357 61.9515C122.421 60.8207 121.975 59.897 121.321 59.8493C120.667 59.8015 120.093 60.6774 120.014 61.8081Z" fill="#333333" stroke="#333333" stroke-width="0.49" stroke-miterlimit="10"/>
<path d="M136.66 62.3815C136.66 63.4963 137.042 64.4359 137.696 64.4837C138.35 64.5315 138.94 63.6555 139.003 62.5248C139.067 61.3941 138.621 60.4704 137.967 60.4226C137.313 60.3748 136.723 61.2507 136.66 62.3815Z" fill="#333333" stroke="#333333" stroke-width="0.49" stroke-miterlimit="10"/>
<g style="mix-blend-mode:soft-light" opacity="0.46">
<path d="M111.563 64.3881C110.711 71.5676 111.099 78.8398 112.711 85.888C115.454 85.5889 117.978 84.252 119.765 82.1518C121.552 80.0517 122.466 77.3478 122.319 74.5957C122.172 71.8435 120.975 69.2521 118.975 67.3537C116.974 65.4553 114.322 64.3941 111.563 64.3881Z" fill="#333333"/>
</g>
<path d="M134.507 77.0014C134.206 78.0073 133.625 78.9073 132.833 79.5973C131.994 80.3996 130.885 80.8598 129.724 80.8873C128.526 80.877 127.381 80.3964 126.535 79.5495C125.754 78.8252 125.238 77.8611 125.068 76.8103C125.961 77.3518 126.662 77.8614 127.491 78.2277C128.163 78.5736 128.904 78.7641 129.66 78.7851C130.434 78.7616 131.194 78.5772 131.892 78.2436C132.753 77.9092 133.534 77.4155 134.507 77.0014Z" fill="#333333"/>
<path d="M128.289 56.473C128.42 58.8794 128.35 61.2925 128.081 63.6874C127.954 64.8659 127.826 66.0603 127.635 67.2389C127.444 68.4174 127.236 69.5959 126.997 70.7744L126.439 69.9781C128.207 70.4537 129.939 71.0551 131.621 71.7777C129.791 71.7683 127.963 71.63 126.152 71.3636H125.53V70.647C125.626 69.4525 125.738 68.274 125.897 67.0796C126.056 65.8852 126.232 64.7226 126.439 63.5441C126.855 61.1392 127.474 58.7737 128.289 56.473Z" fill="#251B2D"/>
<path d="M134.507 77.0014C134.206 78.0073 133.625 78.9073 132.833 79.5973C131.994 80.3996 130.885 80.8598 129.724 80.8873C128.526 80.877 127.381 80.3964 126.535 79.5495C125.754 78.8252 125.238 77.8611 125.068 76.8103C125.961 77.3518 126.662 77.8614 127.491 78.2277C128.163 78.5736 128.904 78.7641 129.66 78.7851C130.434 78.7616 131.194 78.5772 131.892 78.2436C132.753 77.9092 133.534 77.4155 134.507 77.0014Z" fill="#333333"/>
<path d="M170.892 47.9208C169.502 44.3931 167.469 41.1533 164.897 38.3653C162.88 36.5199 160.654 34.9164 158.264 33.5876C156.577 32.5185 154.825 31.5558 153.018 30.705C150.964 29.8273 148.828 29.1551 146.641 28.6983C143.183 27.7682 139.583 27.482 136.022 27.8543C132.931 28.2565 130.057 29.6608 127.842 31.8517C124.462 34.2704 121.595 37.334 119.408 40.8657C117.973 42.8883 116.569 44.9109 115.166 46.9334C116.069 46.7383 116.942 46.4279 117.765 46.0097C118.979 45.2906 120.103 44.4299 121.114 43.4457C123.942 41.0965 126.181 38.1186 127.651 34.7502C128.509 37.1384 130.209 39.1317 132.434 40.3561C135.28 41.7593 138.455 42.3648 141.618 42.1079C144.249 41.9964 146.991 41.5505 149.463 42.5061C150.694 43.0545 151.803 43.8426 152.726 44.8243C153.648 45.806 154.366 46.9615 154.836 48.2234C155.774 50.7535 156.39 53.3913 156.67 56.0749C156.711 57.2651 157.136 58.4103 157.881 59.3397C158.44 59.8379 159.133 60.1594 159.874 60.2634C163.063 60.8208 166.013 58.9734 168.484 56.9349C169.345 56.3634 170.085 55.6273 170.659 54.769C171.234 53.9107 171.633 52.9472 171.833 51.9341C171.867 50.5381 171.543 49.1566 170.892 47.9208Z" fill="#333333"/>
<path d="M48.8856 189.279C67.5246 162.81 115.613 124.237 115.613 124.237L127.922 134.382L92.4297 209.52C92.4297 209.52 68.7523 254.638 52.4252 255.785C27.2012 257.568 24.666 223.631 48.8856 189.279Z" fill="#F9C4B4"/>
<g style="mix-blend-mode:soft-light" opacity="0.46">
<path d="M115.023 160.994L92.8283 143.412L60.0785 175.694L90.8831 210.731L115.023 160.994Z" fill="#333333"/>
</g>
<path d="M99.9235 194.295L61.354 163.351C61.354 163.351 106.142 109.729 136.293 121.148L124.733 142.186L99.9235 194.295Z" fill="#BAD2C8"/>
<path d="M42.5397 162.746L38.8406 164.339C30.5814 167.779 22.3062 171.15 14.0151 174.452C18.5752 202.019 26.6591 234.333 34.8864 246.118C45.1865 260.881 72.7065 246.643 71.415 232.374C71.0323 226.895 51.915 183.673 42.5397 162.746Z" fill="#F9C4B4"/>
<path d="M48.5348 172.238C44.519 165.429 41.0943 158.29 38.2985 150.897C38.729 149.751 41.4874 136.978 40.1162 133.602C38.1231 128.346 28.684 139.542 28.6362 142.425C28.3492 139.733 25.8778 117.628 21.8279 117.994C19.3884 118.217 20.5524 133.14 20.5524 133.14C20.5524 133.14 13.7282 113.886 11.7192 114.65C9.7102 115.415 15.0037 134.111 15.0037 134.111C15.0037 134.111 8.036 120.16 5.80378 121.18C3.89045 122.04 9.12024 137.01 9.12024 137.01C9.12024 137.01 2.12062 129.158 0.271074 130.13C-1.57848 131.101 5.34139 143.508 6.34589 147.25C7.0315 149.798 10.316 175.439 14.6689 189.358C15.211 189.087 39.3668 177.223 48.5348 172.238Z" fill="#FC9B27"/>
<path d="M48.5348 172.238C48.5348 172.238 50.2568 173.305 49.7306 174.037C49.2044 174.77 16.072 192.177 15.1312 190.632L14.1746 189.04L48.5348 172.238Z" fill="#FCB970"/>
<path d="M52.6644 184.708L61.1787 203.007" stroke="#333333" stroke-width="1.1" stroke-miterlimit="10" stroke-linecap="round"/>
<path d="M161.692 246.834C155.123 228.806 107.848 240.146 107.848 240.146C107.848 240.146 85.5258 320.46 79.8177 403.433C73.2645 499.848 98.9509 607.555 98.9509 607.555C114.305 610.819 142.128 609.561 142.128 609.561V457.947C142.017 457.613 147.087 360.179 154.294 331.401C164.132 292.175 161.692 246.834 161.692 246.834Z" fill="#3F5B99"/>
<path d="M202.781 247.902C196.212 229.858 143.229 240.814 143.229 240.814C143.229 240.814 135.814 264.703 134.459 310.124C133.965 326.48 140.103 389.896 139.386 400.423C132.833 496.854 157.148 607.331 157.148 607.331C172.503 610.517 200.326 609.322 200.326 609.322V457.708C200.214 457.374 205.268 359.94 212.475 331.162C222.393 291.889 202.781 247.902 202.781 247.902Z" fill="#435CA1"/>
<g style="mix-blend-mode:soft-light" opacity="0.46">
<path d="M182.723 278.654C163.813 276.871 144.456 279.212 125.929 283.161C118.531 284.754 111.228 286.601 103.974 288.672C104.927 291.513 106.57 294.074 108.757 296.125C116.729 303.419 129.182 300.903 139.992 301.412C164.164 302.734 185.035 322.004 209.238 321.511C210.994 321.482 212.744 321.301 214.468 320.969C215.834 309.138 215.485 297.171 213.432 285.439C203.447 282.163 193.16 279.891 182.723 278.654Z" fill="#333333"/>
</g>
<path d="M185.529 299.167C185.529 299.167 174.368 348.839 194.059 352.04" stroke="#6693B9" stroke-width="1.2" stroke-miterlimit="10" stroke-linecap="round"/>
<path d="M198.348 298.641C194.139 353.952 194.346 353.076 190.87 380.787C187.682 406.395 183.935 499.737 191.939 574.954" stroke="#6693B9" stroke-width="1.2" stroke-miterlimit="10" stroke-linecap="round"/>
<path d="M103.288 292.765C103.288 292.765 102.73 342.851 86.3868 345.861" stroke="#6693B9" stroke-width="1.2" stroke-miterlimit="10" stroke-linecap="round"/>
<path d="M135.224 288.098C135.224 288.098 129.915 468.665 142.782 514.15" stroke="#6693B9" stroke-width="1.2" stroke-miterlimit="10" stroke-linecap="round"/>
<path d="M146.72 290.169C146.72 290.169 150.228 351.881 135.655 345.909" stroke="#6693B9" stroke-width="1.2" stroke-miterlimit="10" stroke-linecap="round"/>
<path d="M166.731 117.214L128.002 118.807L120.029 119.444C107.816 125.4 106.078 135.21 101.789 147.824C91.5209 178.083 93.4661 220.031 96.5433 248.029C96.5433 248.029 86.1635 282.668 93.1153 289.898C101.598 298.721 128.002 285.789 140.183 288.098C151.982 290.344 169.074 297.558 189.978 298.1C242.977 299.501 213.001 270.803 212.81 259.766C223.269 240.321 217.864 191.524 203.482 153.414C198.237 139.51 190.424 125.878 177.541 118.87C174.83 117.373 168.963 117.214 166.731 117.214Z" fill="#BAD2C8"/>
<path d="M120.269 119.444C120.269 119.444 102.427 245.162 107.322 293.035C107.561 295.392 116.617 291.172 116.617 291.172C114.018 252.727 126.774 118.902 126.774 118.902L120.269 119.444Z" fill="#2D458B"/>
<path d="M175.867 117.803C175.867 117.803 190.217 250.481 185.338 298.402C185.099 300.743 176.042 296.539 176.042 296.539C178.641 258.094 169.361 117.294 169.361 117.294L175.867 117.803Z" fill="#2D458B"/>
<path d="M231.13 213.741C223.828 182.223 193.788 128.41 193.788 128.41L178.561 133.188L183.153 216.161C183.153 216.161 188.112 266.837 202.781 274.052C225.502 285.168 240.633 254.67 231.13 213.741Z" fill="#F9C4B4"/>
<g style="mix-blend-mode:soft-light" opacity="0.46">
<path d="M180.491 162.698L207.676 154.735L225.853 196.955L184.126 217.834L180.491 162.698Z" fill="#333333"/>
</g>
<path d="M181.957 199.216L229.344 185.042C229.344 185.042 208.027 118.52 175.819 117.803L178.561 141.692L181.957 199.216Z" fill="#BAD2C8"/>
<path d="M83.8677 200.251C83.6126 199.471 73.5516 185.679 73.5516 185.679C73.5516 185.679 74.2213 174.229 85.6853 173.958C97.1493 173.687 196.403 171.362 170.892 197.385C145.381 223.408 83.8677 200.251 83.8677 200.251Z" fill="#3F1F1F"/>
<path d="M168.755 191.062C168.389 184.596 170.509 178.322 172.901 172.254C181.431 150.706 194.314 130.146 213.432 117.023C191.207 136.999 177.661 164.848 175.675 194.646" fill="#698937"/>
<path d="M172.008 191.874C180.766 166.132 198.013 144.122 220.926 129.445L210.992 140.354C198.683 153.875 185.673 169.021 185.067 187.304" fill="#698937"/>
<path d="M107.609 222.356C100.771 220.174 94.9339 215.632 91.1438 209.542C87.3538 203.453 85.8581 196.214 86.9249 189.124C87.9916 182.033 91.5511 175.554 96.9655 170.846C102.38 166.138 109.296 163.509 116.474 163.431C120.572 163.431 124.717 164.227 128.751 163.431C134.794 162.3 140.598 157.714 146.465 159.561C148.554 160.214 150.324 161.631 152.365 162.412C157.483 164.37 163.366 162.029 168.628 163.526C173.89 165.023 177.509 170.136 179.996 175.136C182.362 179.614 183.947 184.461 184.684 189.47C186.9 207.641 171.929 224.713 154.198 229.698C136.468 234.683 115.135 228.647 100.29 219.012" fill="#FC9A54"/>
<path d="M131.031 168.193C128.319 163.311 125.272 158.623 121.911 154.162C121.431 153.536 121.111 152.803 120.977 152.026C120.844 151.249 120.901 150.451 121.144 149.7C121.387 148.95 121.809 148.27 122.373 147.719C122.937 147.167 123.626 146.76 124.382 146.534C124.775 146.419 125.187 146.381 125.594 146.422C127.587 146.581 128.879 148.556 129.74 150.372C132.437 156.109 133.976 162.322 134.268 168.655" fill="#58302F"/>
<g style="mix-blend-mode:overlay" opacity="0.34">
<g style="mix-blend-mode:overlay" opacity="0.34">
<path d="M117.462 220.302C117.016 220.541 114.752 217.658 112.823 212.148C108.948 200.802 109.431 188.424 114.178 177.414C114.948 175.636 115.98 173.982 117.239 172.509C118.365 171.267 119.665 170.194 121.098 169.323C123.099 168.097 125.285 167.199 127.571 166.664C129.166 166.313 130.09 166.313 130.186 166.568C130.282 166.823 129.516 167.365 128.177 168.161C126.296 169.201 124.504 170.394 122.82 171.728C120.47 173.622 118.702 176.139 117.718 178.99C116.378 182.634 115.421 186.408 114.864 190.25C113.892 197.303 114.161 204.471 115.661 211.431C116.761 216.751 118.052 220.015 117.462 220.302Z" fill="#333333"/>
</g>
<g style="mix-blend-mode:overlay" opacity="0.34">
<path d="M148.57 217.674C148.044 217.802 146.8 214.839 146.13 209.711C145.796 207.211 145.588 204.217 145.429 200.952C145.269 197.687 145.11 194.152 144.632 190.553C144.237 187.201 143.429 183.911 142.224 180.758C141.2 178.227 139.809 175.861 138.094 173.735C136.612 171.824 135.32 170.215 134.571 168.957C133.821 167.699 133.566 166.966 133.789 166.791C134.013 166.616 134.682 167.03 135.783 167.89C137.351 169.093 138.857 170.374 140.295 171.728C142.55 173.858 144.394 176.384 145.732 179.182C147.302 182.594 148.324 186.233 148.761 189.963C149.196 193.577 149.366 197.218 149.271 200.857C149.271 204.042 149.128 206.988 149.064 209.504C149 214.505 149.192 217.547 148.57 217.674Z" fill="#333333"/>
</g>
<g style="mix-blend-mode:overlay" opacity="0.34">
<path d="M174.288 221.608C173.714 221.608 172.853 217.133 171.913 209.807C171.45 206.144 170.956 201.844 170.493 196.923C170.226 191.813 169.387 186.749 167.99 181.825C167.207 179.495 165.99 177.333 164.403 175.455C162.896 173.732 161.058 172.329 158.998 171.33C155.298 169.596 151.283 168.632 147.199 168.495C143.627 168.304 140.646 168.495 138.573 168.4C136.5 168.304 135.384 168.272 135.304 167.986C135.224 167.699 136.372 167.285 138.397 166.791C141.293 166.115 144.244 165.705 147.215 165.565C151.808 165.273 156.405 166.058 160.64 167.858C163.232 168.993 165.557 170.659 167.464 172.747C169.463 175.01 170.982 177.654 171.928 180.519C173.454 185.775 174.258 191.213 174.32 196.684C174.575 201.557 174.767 205.937 174.846 209.632C175.038 217.037 174.862 221.56 174.288 221.608Z" fill="#333333"/>
</g>
<g style="mix-blend-mode:overlay" opacity="0.34">
<path d="M129.437 165.74C129.437 166.377 125.435 166.106 119.503 167.46C116.068 168.245 112.753 169.487 109.65 171.155C105.916 172.973 102.755 175.783 100.514 179.277C98.4089 182.972 97.8189 187.415 97.3247 191.476C96.8304 195.537 96.384 199.28 96.0173 202.401C95.3157 208.644 94.662 212.53 94.088 212.498C93.514 212.467 93.1154 208.565 93.0835 202.226C93.0835 199.041 93.1632 195.283 93.514 191.078C93.6479 186.26 94.8227 181.529 96.958 177.207C98.2735 174.968 99.9989 172.996 102.044 171.394C103.871 169.958 105.856 168.734 107.96 167.747C111.475 166.067 115.248 164.99 119.121 164.562C125.626 163.877 129.564 165.262 129.437 165.74Z" fill="#333333"/>
</g>
</g>
<path d="M75.2258 152.06C71.4663 145.97 69.6099 138.899 69.8939 131.75C70.1779 124.602 72.5894 117.7 76.8202 111.927C80.4398 125.565 80.5987 139.89 77.2826 153.605" fill="#446815"/>
<path d="M72.7702 156.169C65.808 151.728 60.1776 145.489 56.4754 138.112C52.7731 130.736 51.1368 122.497 51.7396 114.268C61.6786 125.445 69.5548 138.295 75.0024 152.219" fill="#698937"/>
<path d="M70.6816 153.589C66.1877 153.376 61.8516 151.869 58.1963 149.249C54.541 146.63 51.7227 143.009 50.0814 138.825C60.3684 139.756 69.9827 144.332 77.1869 151.725" fill="#446815"/>
<path d="M74.8271 155.229C70.6873 150.993 67.6293 145.823 65.9115 140.157C64.1937 134.491 63.8664 128.495 64.9575 122.677C72.502 130.215 76.8672 140.354 77.1549 151.009" fill="#88AA4D"/>
<path d="M74.6676 152.092C70.6815 150.499 66.3606 154.735 66.0736 158.988C65.7866 163.24 68.1304 167.205 70.4583 170.789C80.9497 186.969 92.5891 202.385 104.213 217.786C106.158 217.085 106.046 214.33 105.536 212.323C100.654 192.677 94.0653 173.493 85.8447 154.99C85.2117 153.117 84.062 151.461 82.5282 150.212C81.7456 149.63 80.7637 149.382 79.7982 149.523C78.8326 149.663 77.9623 150.18 77.3782 150.961" fill="#F78131"/>
<g opacity="0.36">
<g style="mix-blend-mode:overlay" opacity="0.36">
<g style="mix-blend-mode:overlay" opacity="0.36">
<path d="M76.5491 163.765C77.0753 164.785 75.7519 166.505 73.5038 167.428C71.2556 168.352 69.1031 168.049 68.7205 166.966C68.3378 165.883 69.8047 164.434 71.9093 163.574C74.014 162.714 76.023 162.746 76.5491 163.765Z" fill="#333333"/>
</g>
</g>
<g style="mix-blend-mode:overlay" opacity="0.36">
<g style="mix-blend-mode:overlay" opacity="0.36">
<path d="M84.3938 171.107C84.2822 169.96 85.6534 168.893 87.3594 168.352C89.0655 167.81 90.8035 167.922 91.3775 168.941C91.9515 169.96 90.7875 171.649 88.6032 172.317C86.4188 172.986 84.4895 172.238 84.3938 171.107Z" fill="#333333"/>
</g>
</g>
<g style="mix-blend-mode:overlay" opacity="0.36">
<g style="mix-blend-mode:overlay" opacity="0.36">
<path d="M88.3002 183.848C88.8104 184.883 87.9972 186.332 86.4825 187.033C84.9678 187.734 83.2936 187.59 82.7834 186.571C82.2732 185.552 83.0704 184.087 84.6011 183.386C86.1318 182.685 87.774 182.829 88.3002 183.848Z" fill="#333333"/>
</g>
</g>
<g style="mix-blend-mode:overlay" opacity="0.36">
<g style="mix-blend-mode:overlay" opacity="0.36">
<path d="M80.0091 149.751C79.9294 150.913 77.6972 151.725 75.2258 152.569C72.7544 153.414 70.4425 154.035 69.6453 153.127C69.2945 152.681 69.4858 151.869 70.2352 150.961C71.2369 149.865 72.5142 149.056 73.9343 148.62C75.3437 148.131 76.8602 148.037 78.319 148.349C79.3235 148.636 80.0091 149.177 80.0091 149.751Z" fill="#333333"/>
</g>
</g>
</g>
<path d="M80.009 149.751C79.9293 150.913 77.6971 151.725 75.2257 152.569C72.7543 153.414 70.4424 154.035 69.6452 153.127C69.2944 152.681 69.4857 151.869 70.2351 150.961C71.2368 149.865 72.5141 149.056 73.9342 148.62C75.3436 148.131 76.86 148.037 78.3189 148.349C79.3234 148.636 80.009 149.177 80.009 149.751Z" fill="#333333"/>
<path d="M84.7923 231.992C106.281 238.521 128.766 241.158 151.185 239.779C162.952 239.031 176.138 236.292 182.452 226.067C186.039 220.27 186.661 213.104 187.235 206.24L188.335 191.906C188.479 189.963 188.335 187.463 186.518 186.81C185.906 186.699 185.278 186.714 184.672 186.854C184.066 186.993 183.495 187.255 182.994 187.622C164.004 197.799 141.379 196.636 119.998 195.235C104.053 194.168 88.5233 191.54 73.5356 185.679C73.6313 185.679 69.4538 227.07 84.7923 231.992Z" fill="#58302F"/>
<path d="M156.016 200.729C158.232 193.547 161.118 186.396 166.141 180.774C171.163 175.152 178.641 171.33 186.119 172.286C194.091 173.305 200.357 179.309 205.077 185.727C212.915 196.399 217.918 208.88 219.618 222.006C220.093 224.558 220.006 227.183 219.363 229.698C219.015 230.951 218.33 232.086 217.383 232.978C216.436 233.871 215.263 234.488 213.99 234.763C209.956 235.32 206.863 231.402 204.694 227.962L193.214 209.791C190.759 205.465 187.723 201.494 184.19 197.99C182.416 196.243 180.306 194.872 177.988 193.961C175.67 193.049 173.191 192.616 170.701 192.687C165.742 193.085 160.911 196.78 160.289 201.701" fill="#446815"/>
<g style="mix-blend-mode:overlay">
<g style="mix-blend-mode:overlay">
<path d="M211.933 216.257C211.71 216.4 209.254 212.849 205.444 207.004C203.53 204.042 201.298 200.634 198.827 196.7C196.324 192.496 193.039 188.809 189.148 185.839C187.255 184.397 185.059 183.403 182.725 182.932C180.391 182.46 177.981 182.523 175.675 183.115C171.931 184.437 168.57 186.658 165.886 189.581C161.102 194.47 159.045 198.388 158.758 198.213C158.98 197.205 159.403 196.251 160.002 195.41C161.381 192.982 163.028 190.717 164.913 188.657C167.649 185.413 171.182 182.932 175.165 181.459C177.619 180.677 180.233 180.54 182.755 181.061C185.419 181.617 187.946 182.7 190.185 184.246C194.283 187.346 197.706 191.248 200.246 195.713C202.685 199.662 204.774 203.245 206.623 206.255C210.099 212.259 212.156 216.129 211.933 216.257Z" fill="#333333"/>
</g>
<g style="mix-blend-mode:overlay">
<path d="M190.568 201.111C190.328 200.968 190.775 199.885 190.95 198.101C191.156 195.767 190.834 193.416 190.009 191.221C189.122 189.015 188.056 186.884 186.821 184.851C185.864 183.259 185.338 182.128 185.561 181.969C185.784 181.809 186.661 182.606 187.905 184.087C189.581 186.035 190.912 188.254 191.843 190.648C192.8 193.127 192.973 195.84 192.337 198.42C191.7 200.267 190.759 201.191 190.568 201.111Z" fill="#333333"/>
</g>
<g style="mix-blend-mode:overlay">
<path d="M199.783 211.734C199.257 211.734 199.177 208.071 199.162 203.66C199.146 199.248 199.161 195.697 199.751 195.601C200.341 195.505 201.043 199.153 201.043 203.66C201.043 208.167 200.294 211.782 199.783 211.734Z" fill="#333333"/>
</g>
<g style="mix-blend-mode:overlay">
<path d="M199.688 182.414C199.688 182.94 196.77 183.322 193.198 183.45C189.627 183.577 186.693 183.45 186.645 182.876C186.597 182.303 189.499 181.698 193.135 181.57C196.77 181.443 199.704 181.905 199.688 182.414Z" fill="#333333"/>
</g>
<g style="mix-blend-mode:overlay">
<path d="M208.298 196.334C208.298 196.843 206.145 197.226 203.642 196.445C201.139 195.665 199.576 194.12 199.879 193.706C200.182 193.292 201.984 193.961 204.2 194.646C206.416 195.33 208.314 195.728 208.298 196.334Z" fill="#333333"/>
</g>
</g>
<path d="M153.688 195.665C153.688 195.665 166.157 194.072 169.856 192.91L169.011 204.87L152.444 205.65L153.688 195.665Z" fill="#58302F"/>
<path d="M221.181 238.075C216.573 235.193 171.115 225.335 148.458 220.557C145.078 230.112 141.512 239.572 137.76 248.937C163.191 261.932 195.877 275.358 210.801 275.676C228.818 275.963 233.49 245.433 221.181 238.075Z" fill="#F9C4B4"/>
<path d="M184.11 228.44L204.774 232.406" stroke="#333333" stroke-width="1.1" stroke-miterlimit="10" stroke-linecap="round"/>
<path d="M158.519 221.003C146.194 218.359 135.224 216.225 135.224 216.225C134.666 215.126 127.81 202.226 124.462 200.873C119.264 198.754 121.464 211.638 123.569 213.613C121.385 212.021 102.841 201.318 100.226 203.261C98.2653 204.727 110.798 214.839 110.798 214.839C110.798 214.839 92.047 206.733 91.2179 208.724C90.3888 210.715 107.736 219.554 107.736 219.554C107.736 219.554 92.7645 215.158 91.9832 217.483C91.3295 219.474 105.871 225.844 105.871 225.844C105.871 225.844 95.3315 225.605 94.7097 227.628C94.0879 229.65 110 233.536 113.11 234.747C121.528 240.146 134.778 251.119 147.948 257.409C148.203 256.852 155.888 231.052 158.519 221.003Z" fill="#FC9B27"/>
<path d="M158.519 221.003C158.519 221.003 160.48 220.461 160.656 221.353C160.831 222.245 151.089 258.317 149.272 257.983L147.502 257.616L158.519 221.003Z" fill="#FCB970"/>
</g>
<defs>
<clipPath id="clip0_107_1123">
<rect width="273" height="627" fill="white"/>
</clipPath>
</defs>
</svg>
