<svg width="446" height="563" viewBox="0 0 446 563" fill="none" xmlns="http://www.w3.org/2000/svg">
<ellipse cx="223" cy="262.5" rx="223" ry="223.5" fill="#C4E2FF"/>
<g clip-path="url(#clip0_1915_2)">
<path d="M271.099 54.7212C268.898 50.8671 263.509 49.9434 260.958 46.3123C258.008 42.1398 259.762 35.7853 256.477 31.8676C254.323 29.7326 251.413 28.531 248.378 28.5232C245.374 28.5254 242.379 28.1942 239.449 27.5358C234.267 25.9432 230.52 20.9425 225.226 19.7799C222.373 19.3008 219.442 19.8688 216.974 21.3792C214.507 22.8895 212.669 25.2402 211.801 27.9976C211.492 29.0314 211.331 30.1038 211.323 31.1828C209.966 31.183 208.624 31.4665 207.383 32.015C206.142 32.5635 205.029 33.3649 204.116 34.3679C202.203 36.5179 201.326 39.4324 199.333 41.5346C197.34 43.6368 194.247 44.9268 192.588 47.4271C191.735 48.8364 191.192 50.4107 190.994 52.0456C190.101 57.3967 190.611 63.2893 193.96 67.5574C197.308 71.8255 204.02 73.657 208.309 70.4081C208.309 70.4081 238.604 84.7414 244.806 88.5636C247.923 90.4218 251.53 91.2946 255.152 91.0672C258.775 90.8398 262.244 89.5229 265.103 87.2895C265.736 86.8651 266.275 86.3153 266.687 85.6742C267.098 85.0332 267.373 84.3145 267.495 83.5628C267.333 82.0662 266.878 80.616 266.156 79.2947C264.737 75.1859 267.065 70.8222 269.137 66.984C271.21 63.1459 273.251 58.5115 271.099 54.7212Z" fill="#333333"/>
<path d="M198.392 57.7789C200.72 43.159 215.309 18.681 241.219 33.7468C249.382 38.5246 252.858 47.1245 254.5 56.043C255.664 62.3019 253.448 120.288 253.448 120.288C251.63 143.062 216.043 146.502 213.747 120.129L214.448 103.741C195.666 97.7687 195.793 74.2144 198.392 57.7789Z" fill="#F9C4B4"/>
<path d="M214.448 103.789C214.448 103.789 225.051 107.324 245.061 94.902C237.203 105.5 226.321 113.477 213.842 117.787L214.448 103.789Z" fill="#333333"/>
<path d="M267.942 65.5189C267.594 62.8126 266.196 60.3509 264.049 58.6647C261.901 56.9785 259.176 56.2028 256.462 56.5048C255.122 56.6398 253.823 57.0385 252.639 57.678C251.454 58.3175 250.409 59.185 249.562 60.2305C248.716 61.276 248.085 62.4787 247.707 63.7691C247.328 65.0595 247.209 66.412 247.357 67.7485C247.7 70.4554 249.098 72.9182 251.247 74.6026C253.396 76.2871 256.123 77.0574 258.837 76.7466C260.176 76.6136 261.475 76.2167 262.659 75.5789C263.843 74.9411 264.889 74.075 265.736 73.0308C266.582 71.9866 267.213 70.785 267.592 69.4955C267.971 68.2061 268.089 66.8545 267.942 65.5189V65.5189Z" fill="#F9C4B4"/>
<path d="M259.491 62.2063C258.749 62.4553 258.038 62.7865 257.37 63.1937C256.169 63.9375 255.133 64.9184 254.325 66.0763C253.896 66.7264 253.538 67.4205 253.257 68.1466C252.877 67.3268 252.821 66.3946 253.097 65.5348C253.358 64.6535 253.848 63.8568 254.516 63.2255C255.183 62.6055 255.994 62.162 256.876 61.9356C257.752 61.703 258.682 61.7993 259.491 62.2063V62.2063Z" fill="#251B2D"/>
<path d="M228.368 53.5745C228.368 54.4823 226.949 55.1671 225.322 55.0237C223.696 54.8804 222.42 54.0682 222.484 53.1604C222.548 52.2527 223.919 51.5678 225.545 51.7112C227.172 51.8545 228.431 52.6667 228.368 53.5745Z" fill="#371C09"/>
<path d="M209.585 53.0012C209.505 53.9089 208.134 54.5937 206.508 54.3708C204.882 54.1478 203.654 53.3197 203.734 52.4119C203.813 51.5041 205.184 50.8193 206.795 51.0423C208.405 51.2652 209.665 52.0456 209.585 53.0012Z" fill="#371C09"/>
<g style="mix-blend-mode:soft-light" opacity="0.46">
<path d="M235.287 88.7706C241.249 88.7706 246.082 83.9434 246.082 77.9888C246.082 72.0342 241.249 67.207 235.287 67.207C229.326 67.207 224.493 72.0342 224.493 77.9888C224.493 83.9434 229.326 88.7706 235.287 88.7706Z" fill="#333333"/>
</g>
<path d="M206.014 61.8081C206.014 62.9229 206.412 63.8626 207.05 63.9104C207.688 63.9581 208.294 63.0822 208.357 61.9515C208.421 60.8207 207.975 59.897 207.321 59.8493C206.667 59.8015 206.093 60.6774 206.014 61.8081Z" fill="#333333" stroke="#333333" stroke-width="0.49" stroke-miterlimit="10"/>
<path d="M222.66 62.3815C222.66 63.4963 223.042 64.4359 223.696 64.4837C224.35 64.5315 224.94 63.6555 225.003 62.5248C225.067 61.3941 224.621 60.4704 223.967 60.4226C223.313 60.3748 222.723 61.2507 222.66 62.3815Z" fill="#333333" stroke="#333333" stroke-width="0.49" stroke-miterlimit="10"/>
<g style="mix-blend-mode:soft-light" opacity="0.46">
<path d="M197.563 64.3881C196.711 71.5676 197.099 78.8398 198.711 85.888C201.454 85.5889 203.978 84.252 205.765 82.1518C207.552 80.0517 208.466 77.3478 208.319 74.5957C208.172 71.8435 206.975 69.2521 204.975 67.3537C202.974 65.4553 200.322 64.3941 197.563 64.3881V64.3881Z" fill="#333333"/>
</g>
<path d="M220.507 77.0014C220.206 78.0073 219.625 78.9073 218.833 79.5973C217.994 80.3996 216.885 80.8598 215.724 80.8873C214.526 80.877 213.381 80.3964 212.535 79.5495C211.754 78.8251 211.238 77.8611 211.068 76.8103C211.961 77.3518 212.662 77.8614 213.491 78.2277C214.163 78.5736 214.904 78.7641 215.66 78.7851C216.434 78.7616 217.194 78.5772 217.892 78.2436C218.753 77.9092 219.534 77.4155 220.507 77.0014Z" fill="#333333"/>
<path d="M214.289 56.473C214.42 58.8794 214.35 61.2925 214.081 63.6874C213.954 64.8659 213.826 66.0603 213.635 67.2389C213.444 68.4174 213.236 69.5959 212.997 70.7744L212.439 69.9781C214.207 70.4537 215.939 71.0551 217.621 71.7777C215.791 71.7683 213.963 71.63 212.152 71.3636H211.53V70.647C211.626 69.4525 211.738 68.274 211.897 67.0796C212.056 65.8852 212.232 64.7226 212.439 63.5441C212.855 61.1392 213.474 58.7737 214.289 56.473V56.473Z" fill="#251B2D"/>
<path d="M220.507 77.0014C220.206 78.0073 219.625 78.9073 218.833 79.5973C217.994 80.3996 216.885 80.8598 215.724 80.8873C214.526 80.877 213.381 80.3964 212.535 79.5495C211.754 78.8251 211.238 77.8611 211.068 76.8103C211.961 77.3518 212.662 77.8614 213.491 78.2277C214.163 78.5736 214.904 78.7641 215.66 78.7851C216.434 78.7616 217.194 78.5772 217.892 78.2436C218.753 77.9092 219.534 77.4155 220.507 77.0014Z" fill="#333333"/>
<path d="M256.892 47.9208C255.502 44.3931 253.469 41.1533 250.897 38.3653C248.88 36.5199 246.654 34.9164 244.264 33.5876C242.577 32.5185 240.825 31.5558 239.018 30.705C236.964 29.8273 234.828 29.1551 232.641 28.6983C229.183 27.7682 225.583 27.482 222.022 27.8543C218.931 28.2565 216.057 29.6608 213.842 31.8517C210.462 34.2704 207.595 37.334 205.408 40.8657C203.973 42.8883 202.569 44.9109 201.166 46.9334C202.069 46.7383 202.942 46.4279 203.765 46.0097C204.979 45.2906 206.103 44.4299 207.114 43.4457C209.942 41.0965 212.181 38.1186 213.651 34.7502C214.509 37.1384 216.209 39.1317 218.434 40.3561C221.28 41.7593 224.455 42.3648 227.618 42.1079C230.249 41.9964 232.991 41.5505 235.463 42.5061C236.694 43.0545 237.803 43.8426 238.726 44.8243C239.648 45.806 240.366 46.9615 240.836 48.2234C241.774 50.7535 242.39 53.3913 242.67 56.0749C242.711 57.2651 243.136 58.4103 243.881 59.3397C244.44 59.8379 245.133 60.1594 245.874 60.2634C249.063 60.8208 252.013 58.9734 254.484 56.9349C255.345 56.3634 256.085 55.6273 256.659 54.769C257.234 53.9107 257.633 52.9472 257.833 51.9341C257.867 50.5381 257.543 49.1566 256.892 47.9208V47.9208Z" fill="#333333"/>
<path d="M134.886 189.279C153.525 162.81 201.613 124.237 201.613 124.237L213.922 134.382L178.43 209.52C178.43 209.52 154.752 254.638 138.425 255.785C113.201 257.568 110.666 223.631 134.886 189.279Z" fill="#F9C4B4"/>
<g style="mix-blend-mode:soft-light" opacity="0.46">
<path d="M201.023 160.994L178.828 143.412L146.078 175.694L176.883 210.731L201.023 160.994Z" fill="#333333"/>
</g>
<path d="M185.924 194.295L147.354 163.351C147.354 163.351 192.142 109.729 222.293 121.148L210.733 142.186L185.924 194.295Z" fill="#BAD2C8"/>
<path d="M128.54 162.746L124.841 164.339C116.581 167.779 108.306 171.15 100.015 174.452C104.575 202.019 112.659 234.333 120.886 246.118C131.186 260.881 158.706 246.643 157.415 232.374C157.032 226.895 137.915 183.673 128.54 162.746Z" fill="#F9C4B4"/>
<path d="M134.535 172.238C130.519 165.429 127.094 158.29 124.298 150.897C124.729 149.751 127.487 136.978 126.116 133.602C124.123 128.346 114.684 139.542 114.636 142.425C114.349 139.733 111.878 117.628 107.828 117.994C105.388 118.217 106.552 133.14 106.552 133.14C106.552 133.14 99.7282 113.886 97.7192 114.65C95.7102 115.415 101.004 134.111 101.004 134.111C101.004 134.111 94.036 120.16 91.8038 121.18C89.8905 122.04 95.1202 137.01 95.1202 137.01C95.1202 137.01 88.1206 129.158 86.2711 130.13C84.4215 131.101 91.3414 143.508 92.3459 147.25C93.0315 149.798 96.316 175.439 100.669 189.358C101.211 189.087 125.367 177.223 134.535 172.238Z" fill="#FC9B27"/>
<path d="M134.535 172.238C134.535 172.238 136.257 173.305 135.731 174.037C135.204 174.77 102.072 192.177 101.131 190.632L100.175 189.04L134.535 172.238Z" fill="#FCB970"/>
<path d="M138.664 184.708L147.179 203.007" stroke="#333333" stroke-width="1.1" stroke-miterlimit="10" stroke-linecap="round"/>
<path d="M247.692 246.834C241.123 228.806 193.848 240.146 193.848 240.146C193.848 240.146 171.526 320.46 165.818 403.433C159.265 499.848 184.951 607.555 184.951 607.555C200.305 610.819 228.128 609.561 228.128 609.561V457.947C228.017 457.613 233.087 360.179 240.294 331.401C250.132 292.175 247.692 246.834 247.692 246.834Z" fill="#3F5B99"/>
<path d="M288.781 247.902C282.212 229.858 229.229 240.814 229.229 240.814C229.229 240.814 221.814 264.703 220.459 310.124C219.965 326.48 226.103 389.896 225.386 400.423C218.833 496.854 243.148 607.331 243.148 607.331C258.503 610.517 286.326 609.322 286.326 609.322V457.708C286.214 457.374 291.268 359.94 298.475 331.162C308.393 291.889 288.781 247.902 288.781 247.902Z" fill="#435CA1"/>
<g style="mix-blend-mode:soft-light" opacity="0.46">
<path d="M268.723 278.654C249.813 276.871 230.456 279.212 211.929 283.161C204.531 284.754 197.228 286.601 189.974 288.672C190.927 291.513 192.57 294.074 194.757 296.125C202.729 303.419 215.182 300.903 225.992 301.412C250.164 302.734 271.035 322.004 295.238 321.511C296.994 321.482 298.744 321.301 300.468 320.969C301.834 309.138 301.485 297.171 299.432 285.439C289.447 282.163 279.16 279.891 268.723 278.654V278.654Z" fill="#333333"/>
</g>
<path d="M271.529 299.167C271.529 299.167 260.368 348.839 280.059 352.04" stroke="#6693B9" stroke-width="1.2" stroke-miterlimit="10" stroke-linecap="round"/>
<path d="M284.348 298.641C280.139 353.952 280.346 353.076 276.87 380.787C273.682 406.395 269.935 499.737 277.939 574.954" stroke="#6693B9" stroke-width="1.2" stroke-miterlimit="10" stroke-linecap="round"/>
<path d="M189.288 292.765C189.288 292.765 188.73 342.851 172.387 345.861" stroke="#6693B9" stroke-width="1.2" stroke-miterlimit="10" stroke-linecap="round"/>
<path d="M221.224 288.098C221.224 288.098 215.915 468.665 228.782 514.15" stroke="#6693B9" stroke-width="1.2" stroke-miterlimit="10" stroke-linecap="round"/>
<path d="M232.72 290.169C232.72 290.169 236.228 351.881 221.655 345.909" stroke="#6693B9" stroke-width="1.2" stroke-miterlimit="10" stroke-linecap="round"/>
<path d="M252.731 117.214L214.002 118.807L206.029 119.444C193.816 125.4 192.078 135.21 187.789 147.824C177.521 178.083 179.466 220.031 182.543 248.029C182.543 248.029 172.164 282.668 179.115 289.898C187.598 298.721 214.002 285.789 226.183 288.098C237.982 290.344 255.074 297.558 275.978 298.1C328.977 299.501 299.001 270.803 298.81 259.766C309.269 240.321 303.864 191.524 289.482 153.414C284.237 139.51 276.424 125.878 263.541 118.87C260.83 117.373 254.963 117.214 252.731 117.214Z" fill="#BAD2C8"/>
<path d="M206.269 119.444C206.269 119.444 188.427 245.162 193.322 293.035C193.561 295.392 202.617 291.172 202.617 291.172C200.018 252.727 212.774 118.902 212.774 118.902L206.269 119.444Z" fill="#2D458B"/>
<path d="M261.867 117.803C261.867 117.803 276.217 250.481 271.338 298.402C271.099 300.743 262.042 296.539 262.042 296.539C264.641 258.094 255.361 117.294 255.361 117.294L261.867 117.803Z" fill="#2D458B"/>
<path d="M317.13 213.741C309.828 182.223 279.788 128.41 279.788 128.41L264.561 133.188L269.153 216.161C269.153 216.161 274.112 266.837 288.781 274.052C311.502 285.168 326.633 254.67 317.13 213.741Z" fill="#F9C4B4"/>
<g style="mix-blend-mode:soft-light" opacity="0.46">
<path d="M266.491 162.698L293.676 154.735L311.853 196.955L270.126 217.834L266.491 162.698Z" fill="#333333"/>
</g>
<path d="M267.957 199.216L315.344 185.042C315.344 185.042 294.027 118.52 261.819 117.803L264.561 141.692L267.957 199.216Z" fill="#BAD2C8"/>
<path d="M169.868 200.251C169.613 199.471 159.552 185.679 159.552 185.679C159.552 185.679 160.221 174.229 171.685 173.958C183.149 173.687 282.403 171.362 256.892 197.385C231.381 223.408 169.868 200.251 169.868 200.251Z" fill="#3F1F1F"/>
<path d="M254.755 191.062C254.389 184.596 256.509 178.322 258.901 172.254C267.431 150.706 280.314 130.146 299.432 117.023C277.207 136.999 263.661 164.848 261.675 194.646" fill="#698937"/>
<path d="M258.008 191.874C266.766 166.132 284.013 144.122 306.926 129.445L296.992 140.354C284.683 153.875 271.673 169.021 271.067 187.304" fill="#698937"/>
<path d="M193.609 222.356C186.771 220.174 180.934 215.632 177.144 209.542C173.354 203.453 171.858 196.214 172.925 189.124C173.992 182.033 177.551 175.554 182.966 170.846C188.38 166.138 195.296 163.509 202.474 163.431C206.572 163.431 210.717 164.227 214.751 163.431C220.794 162.3 226.598 157.714 232.465 159.561C234.554 160.214 236.324 161.631 238.365 162.412C243.483 164.37 249.366 162.029 254.628 163.526C259.89 165.023 263.509 170.136 265.996 175.136C268.362 179.614 269.947 184.461 270.684 189.47C272.9 207.641 257.929 224.713 240.198 229.698C222.468 234.683 201.135 228.647 186.29 219.012" fill="#FC9A54"/>
<path d="M217.031 168.193C214.319 163.311 211.272 158.623 207.911 154.162C207.431 153.536 207.111 152.803 206.977 152.026C206.844 151.249 206.901 150.451 207.144 149.7C207.387 148.95 207.809 148.27 208.373 147.719C208.937 147.167 209.626 146.76 210.382 146.534C210.775 146.419 211.187 146.381 211.594 146.422C213.587 146.581 214.879 148.556 215.74 150.372C218.437 156.109 219.976 162.322 220.268 168.655" fill="#58302F"/>
<g style="mix-blend-mode:overlay" opacity="0.34">
<g style="mix-blend-mode:overlay" opacity="0.34">
<path d="M203.462 220.302C203.016 220.541 200.752 217.658 198.823 212.148C194.948 200.802 195.431 188.424 200.178 177.414C200.948 175.636 201.98 173.982 203.239 172.509C204.365 171.267 205.665 170.194 207.098 169.323C209.099 168.097 211.285 167.199 213.571 166.664C215.166 166.313 216.09 166.313 216.186 166.568C216.282 166.823 215.516 167.365 214.177 168.161C212.296 169.201 210.504 170.394 208.82 171.728C206.47 173.622 204.702 176.139 203.718 178.99C202.378 182.634 201.421 186.408 200.864 190.25C199.892 197.303 200.161 204.471 201.661 211.431C202.761 216.751 204.052 220.015 203.462 220.302Z" fill="#333333"/>
</g>
<g style="mix-blend-mode:overlay" opacity="0.34">
<path d="M234.57 217.674C234.044 217.802 232.8 214.839 232.13 209.711C231.796 207.211 231.588 204.217 231.429 200.952C231.269 197.687 231.11 194.152 230.632 190.553C230.237 187.201 229.429 183.911 228.224 180.758C227.2 178.227 225.809 175.861 224.094 173.735C222.612 171.824 221.32 170.215 220.571 168.957C219.821 167.699 219.566 166.966 219.789 166.791C220.013 166.616 220.682 167.03 221.783 167.89C223.351 169.093 224.857 170.374 226.295 171.728C228.55 173.858 230.394 176.384 231.732 179.182C233.302 182.594 234.324 186.233 234.761 189.963C235.196 193.577 235.366 197.218 235.271 200.857C235.271 204.042 235.128 206.988 235.064 209.504C235 214.505 235.192 217.547 234.57 217.674Z" fill="#333333"/>
</g>
<g style="mix-blend-mode:overlay" opacity="0.34">
<path d="M260.288 221.608C259.714 221.608 258.853 217.133 257.913 209.807C257.45 206.144 256.956 201.844 256.493 196.923C256.226 191.813 255.387 186.749 253.99 181.825C253.207 179.495 251.99 177.333 250.403 175.455C248.896 173.732 247.058 172.329 244.998 171.33C241.298 169.596 237.283 168.632 233.199 168.495C229.627 168.304 226.646 168.495 224.573 168.4C222.5 168.304 221.384 168.272 221.304 167.986C221.224 167.699 222.372 167.285 224.397 166.791C227.293 166.115 230.244 165.705 233.215 165.565C237.808 165.273 242.405 166.058 246.64 167.858C249.232 168.993 251.557 170.659 253.464 172.747C255.463 175.01 256.982 177.654 257.928 180.519C259.454 185.775 260.258 191.213 260.32 196.684C260.575 201.557 260.767 205.937 260.846 209.632C261.038 217.037 260.862 221.56 260.288 221.608Z" fill="#333333"/>
</g>
<g style="mix-blend-mode:overlay" opacity="0.34">
<path d="M215.437 165.74C215.437 166.377 211.435 166.106 205.503 167.46C202.068 168.245 198.753 169.487 195.65 171.155C191.916 172.973 188.755 175.783 186.514 179.277C184.409 182.972 183.819 187.415 183.325 191.476C182.83 195.537 182.384 199.28 182.017 202.401C181.316 208.644 180.662 212.53 180.088 212.498C179.514 212.467 179.115 208.565 179.083 202.226C179.083 199.041 179.163 195.283 179.514 191.078C179.648 186.26 180.823 181.529 182.958 177.207C184.274 174.968 185.999 172.996 188.044 171.394C189.871 169.958 191.856 168.734 193.96 167.747C197.475 166.067 201.248 164.99 205.121 164.562C211.626 163.877 215.564 165.262 215.437 165.74Z" fill="#333333"/>
</g>
</g>
<path d="M161.226 152.06C157.466 145.97 155.61 138.899 155.894 131.75C156.178 124.602 158.589 117.7 162.82 111.927C166.44 125.565 166.599 139.89 163.283 153.605" fill="#446815"/>
<path d="M158.77 156.169C151.808 151.728 146.178 145.489 142.475 138.112C138.773 130.736 137.137 122.497 137.74 114.268C147.679 125.445 155.555 138.295 161.002 152.219" fill="#698937"/>
<path d="M156.682 153.589C152.188 153.376 147.852 151.869 144.196 149.249C140.541 146.63 137.723 143.009 136.081 138.825C146.368 139.756 155.983 144.332 163.187 151.725" fill="#446815"/>
<path d="M160.827 155.229C156.687 150.993 153.629 145.823 151.911 140.157C150.194 134.491 149.866 128.495 150.957 122.677C158.502 130.215 162.867 140.354 163.155 151.009" fill="#88AA4D"/>
<path d="M160.668 152.092C156.682 150.499 152.361 154.735 152.074 158.988C151.787 163.24 154.13 167.205 156.458 170.789C166.95 186.969 178.589 202.385 190.213 217.786C192.158 217.085 192.046 214.33 191.536 212.323C186.654 192.677 180.065 173.493 171.845 154.99C171.212 153.117 170.062 151.461 168.528 150.212C167.746 149.63 166.764 149.382 165.798 149.523C164.833 149.663 163.962 150.18 163.378 150.961" fill="#F78131"/>
<g opacity="0.36">
<g style="mix-blend-mode:overlay" opacity="0.36">
<g style="mix-blend-mode:overlay" opacity="0.36">
<path d="M162.549 163.765C163.075 164.785 161.752 166.505 159.504 167.428C157.256 168.352 155.103 168.049 154.72 166.966C154.338 165.883 155.805 164.434 157.909 163.574C160.014 162.714 162.023 162.746 162.549 163.765Z" fill="#333333"/>
</g>
</g>
<g style="mix-blend-mode:overlay" opacity="0.36">
<g style="mix-blend-mode:overlay" opacity="0.36">
<path d="M170.394 171.107C170.282 169.96 171.653 168.893 173.359 168.352C175.066 167.81 176.803 167.922 177.377 168.941C177.951 169.96 176.788 171.649 174.603 172.317C172.419 172.986 170.489 172.238 170.394 171.107Z" fill="#333333"/>
</g>
</g>
<g style="mix-blend-mode:overlay" opacity="0.36">
<g style="mix-blend-mode:overlay" opacity="0.36">
<path d="M174.3 183.848C174.81 184.883 173.997 186.332 172.483 187.033C170.968 187.734 169.294 187.59 168.783 186.571C168.273 185.552 169.07 184.087 170.601 183.386C172.132 182.685 173.774 182.829 174.3 183.848Z" fill="#333333"/>
</g>
</g>
<g style="mix-blend-mode:overlay" opacity="0.36">
<g style="mix-blend-mode:overlay" opacity="0.36">
<path d="M166.009 149.751C165.929 150.913 163.697 151.725 161.226 152.569C158.754 153.414 156.443 154.035 155.645 153.127C155.295 152.681 155.486 151.869 156.235 150.961C157.237 149.865 158.514 149.056 159.934 148.62C161.344 148.131 162.86 148.037 164.319 148.349C165.324 148.636 166.009 149.177 166.009 149.751Z" fill="#333333"/>
</g>
</g>
</g>
<path d="M166.009 149.751C165.929 150.913 163.697 151.725 161.226 152.569C158.754 153.414 156.442 154.035 155.645 153.127C155.294 152.681 155.486 151.869 156.235 150.961C157.237 149.865 158.514 149.056 159.934 148.62C161.344 148.131 162.86 148.037 164.319 148.349C165.323 148.636 166.009 149.177 166.009 149.751Z" fill="#333333"/>
<path d="M170.792 231.992C192.281 238.521 214.766 241.158 237.185 239.779C248.952 239.031 262.138 236.292 268.452 226.067C272.039 220.27 272.661 213.104 273.235 206.24L274.335 191.906C274.479 189.963 274.335 187.463 272.518 186.81C271.906 186.699 271.278 186.714 270.672 186.854C270.066 186.993 269.495 187.255 268.994 187.622C250.004 197.799 227.379 196.636 205.998 195.235C190.053 194.168 174.523 191.54 159.536 185.679C159.631 185.679 155.454 227.071 170.792 231.992Z" fill="#58302F"/>
<path d="M242.016 200.729C244.232 193.547 247.118 186.396 252.141 180.774C257.163 175.152 264.641 171.33 272.119 172.286C280.091 173.305 286.357 179.309 291.077 185.727C298.915 196.399 303.918 208.88 305.618 222.006C306.093 224.558 306.006 227.183 305.363 229.698C305.015 230.951 304.33 232.086 303.383 232.978C302.436 233.871 301.263 234.488 299.99 234.763C295.956 235.32 292.863 231.402 290.694 227.962L279.214 209.791C276.759 205.465 273.723 201.494 270.19 197.99C268.416 196.243 266.306 194.872 263.988 193.961C261.67 193.049 259.191 192.616 256.701 192.687C251.742 193.085 246.911 196.78 246.289 201.701" fill="#446815"/>
<g style="mix-blend-mode:overlay">
<g style="mix-blend-mode:overlay">
<path d="M297.933 216.257C297.71 216.4 295.254 212.849 291.444 207.004C289.53 204.042 287.298 200.634 284.827 196.7C282.324 192.496 279.039 188.809 275.148 185.839C273.255 184.397 271.059 183.403 268.725 182.932C266.391 182.46 263.981 182.523 261.675 183.115C257.931 184.437 254.57 186.658 251.886 189.581C247.102 194.47 245.045 198.388 244.758 198.213C244.98 197.205 245.403 196.251 246.002 195.41C247.381 192.982 249.028 190.717 250.913 188.657C253.649 185.413 257.182 182.932 261.165 181.459C263.619 180.677 266.233 180.54 268.755 181.061C271.419 181.617 273.946 182.7 276.185 184.246C280.283 187.346 283.706 191.248 286.246 195.713C288.685 199.662 290.774 203.245 292.623 206.255C296.099 212.259 298.156 216.129 297.933 216.257Z" fill="#333333"/>
</g>
<g style="mix-blend-mode:overlay">
<path d="M276.568 201.111C276.328 200.968 276.775 199.885 276.95 198.101C277.156 195.767 276.834 193.416 276.009 191.221C275.122 189.015 274.056 186.884 272.821 184.851C271.864 183.259 271.338 182.128 271.561 181.969C271.784 181.809 272.661 182.606 273.905 184.087C275.581 186.035 276.912 188.254 277.843 190.648C278.8 193.127 278.973 195.84 278.337 198.42C277.7 200.267 276.759 201.191 276.568 201.111Z" fill="#333333"/>
</g>
<g style="mix-blend-mode:overlay">
<path d="M285.783 211.734C285.257 211.734 285.177 208.071 285.162 203.66C285.146 199.248 285.161 195.697 285.751 195.601C286.341 195.505 287.043 199.153 287.043 203.66C287.043 208.167 286.294 211.782 285.783 211.734Z" fill="#333333"/>
</g>
<g style="mix-blend-mode:overlay">
<path d="M285.688 182.414C285.688 182.94 282.77 183.322 279.198 183.45C275.627 183.577 272.693 183.45 272.645 182.876C272.597 182.303 275.499 181.698 279.135 181.57C282.77 181.443 285.704 181.905 285.688 182.414Z" fill="#333333"/>
</g>
<g style="mix-blend-mode:overlay">
<path d="M294.298 196.334C294.298 196.843 292.145 197.226 289.642 196.445C287.139 195.665 285.576 194.12 285.879 193.706C286.182 193.292 287.984 193.961 290.2 194.646C292.416 195.33 294.314 195.728 294.298 196.334Z" fill="#333333"/>
</g>
</g>
<path d="M239.688 195.665C239.688 195.665 252.157 194.072 255.856 192.91L255.011 204.87L238.444 205.65L239.688 195.665Z" fill="#58302F"/>
<path d="M307.181 238.075C302.573 235.193 257.115 225.335 234.458 220.557C231.078 230.112 227.512 239.572 223.76 248.937C249.191 261.932 281.877 275.358 296.801 275.676C314.818 275.963 319.49 245.433 307.181 238.075Z" fill="#F9C4B4"/>
<path d="M270.11 228.44L290.774 232.406" stroke="#333333" stroke-width="1.1" stroke-miterlimit="10" stroke-linecap="round"/>
<path d="M244.519 221.003C232.194 218.359 221.224 216.225 221.224 216.225C220.666 215.126 213.81 202.226 210.462 200.873C205.264 198.754 207.464 211.638 209.569 213.613C207.385 212.021 188.841 201.318 186.226 203.261C184.265 204.727 196.798 214.839 196.798 214.839C196.798 214.839 178.047 206.733 177.218 208.724C176.389 210.715 193.736 219.554 193.736 219.554C193.736 219.554 178.765 215.158 177.983 217.483C177.33 219.474 191.871 225.844 191.871 225.844C191.871 225.844 181.332 225.605 180.71 227.628C180.088 229.65 196 233.536 199.11 234.747C207.528 240.146 220.778 251.119 233.948 257.409C234.203 256.852 241.888 231.052 244.519 221.003Z" fill="#FC9B27"/>
<path d="M244.519 221.003C244.519 221.003 246.48 220.461 246.656 221.353C246.831 222.245 237.089 258.317 235.272 257.983L233.502 257.616L244.519 221.003Z" fill="#FCB970"/>
</g>
<defs>
<clipPath id="clip0_1915_2">
<rect width="273" height="627" fill="white" transform="translate(86)"/>
</clipPath>
</defs>
</svg>
