<svg width="36" height="44" viewBox="0 0 36 44" fill="none" xmlns="http://www.w3.org/2000/svg">
<path d="M26.2608 7.26717C25.4577 3.48096 23.163 0.899498 22.1304 0.383225C19.807 -0.778413 19.0327 1.07159 18 1.07159C16.9674 1.07159 16.193 -0.778518 13.8696 0.383225C12.8371 0.899498 10.5424 3.48096 9.73923 7.26717C8.9361 11.0534 18 7.95553 18 7.95553C18 7.95553 27.0639 11.0534 26.2608 7.26717Z" fill="#FFD24F"/>
<path d="M18 18.5867C26.7444 18.5867 33.8331 15.967 33.8331 12.7353C33.8331 9.50367 26.7444 6.88391 18 6.88391C9.25561 6.88391 2.1669 9.50367 2.1669 12.7353C2.1669 15.967 9.25561 18.5867 18 18.5867Z" fill="#FFBE1E"/>
<path d="M8.68419 16.972C7.65228 16.7138 6.97626 17.2654 6.97626 18.3488C6.97626 19.783 8.36397 23.2966 9.82282 21.1023C11.2817 18.9081 8.68419 16.972 8.68419 16.972Z" fill="#FFE1B2"/>
<path d="M27.1406 16.972C28.2669 16.7138 29.0049 17.2654 29.0049 18.3488C29.0049 19.783 27.4902 23.2966 25.8977 21.1023C24.3053 18.9081 27.1406 16.972 27.1406 16.972Z" fill="#FFE1B2"/>
<path d="M10.4371 29.4894C11.9766 28.4982 11.8044 25.5481 11.8044 24.8597H24.1956C24.1956 25.5481 24.0047 28.4982 25.5441 29.4894L18 37.9393L10.4371 29.4894Z" fill="#FFD7A3"/>
<path d="M22.8187 32.4322L25.5441 29.4895C24.0045 28.4983 24.1956 25.5481 24.1956 24.8597H11.8044C12.6934 27.4158 18.5737 31.8011 22.8187 32.4322Z" fill="#FDC88E"/>
<path d="M33.8331 44.0001C34.9737 44.0001 35.8983 43.0755 35.8983 41.9349V37.8331C35.8983 34.8041 33.538 31.5705 30.6531 30.6475L26.3463 29.2694C24.0292 31.0412 20.7179 33.4581 18 33.4581C15.2821 33.4581 11.9707 31.0412 9.65364 29.2694L5.34687 30.6475C2.46203 31.5705 0.101715 34.8041 0.101715 37.8331V41.9349C0.101715 43.0755 1.0263 44.0001 2.16691 44.0001H33.8331Z" fill="#FF6953"/>
<path d="M35.8534 42.3607H34.7847V40.9134H35.8983V39.8595H34.7847V38.4121H35.8983V37.833C35.8983 37.6752 35.8881 37.5167 35.8756 37.3583H34.7847V35.911H35.5942C35.4853 35.5535 35.3498 35.2012 35.1879 34.8571H34.7847V34.1022C34.4011 33.4635 33.9328 32.8723 33.4013 32.3559H32.2836V31.4467C31.7695 31.1042 31.2222 30.8295 30.6532 30.6473L28.1758 29.8546H27.2812V29.5682L26.3464 29.2691C26.3077 29.2988 26.2666 29.3298 26.2273 29.3597V29.8546H25.5718C24.9936 30.2862 24.3724 30.7328 23.7261 31.1609V32.3558H22.2787V32.0522C21.0646 32.7359 19.8183 33.2592 18.6522 33.4096H18.7237V34.8569H17.2764V33.4096H17.3479C16.1817 33.2592 14.9354 32.7358 13.7213 32.0521V32.3557H12.2739V31.1608C11.6276 30.7327 11.0064 30.2861 10.4282 29.8545H9.77269V29.3596C9.73346 29.3297 9.69224 29.2986 9.65354 29.269L8.71881 29.5681V29.8545H7.82414L5.34677 30.6472C4.77777 30.8293 4.23043 31.104 3.71635 31.4466V32.3558H2.59876C2.06732 32.8722 1.59896 33.4632 1.21534 34.1021V34.857H0.812152C0.650418 35.2011 0.514838 35.5533 0.405829 35.9109H1.21534V37.3583H0.124416C0.111863 37.5167 0.101715 37.6752 0.101715 37.833V38.4121H1.21523V39.8595H0.101715V40.9134H1.21523V42.3607H0.146699C0.232692 42.7703 0.44077 43.1336 0.730134 43.4146H1.21523V43.7575C1.50125 43.9072 1.82168 44 2.16691 44H2.26922V43.4146H3.71656V44H4.77055V43.4146H6.21768V44H7.27157V43.4146H8.71891V44H9.7728V43.4146H11.2201V44H12.274V43.4146H13.7214V44H14.7754V43.4146H16.2227V44H17.2766V43.4146H18.7239V44H19.7778V43.4146H21.2251V44H22.279V43.4146H23.7264V44H24.7803V43.4146H26.2276V44H27.2815V43.4146H28.7288V44H29.7827V43.4146H31.23V44H32.284V43.4146H33.7314V44H33.8337C34.1789 44 34.4994 43.9072 34.7854 43.7575V43.4146H35.2705C35.5592 43.1336 35.7674 42.7703 35.8534 42.3607ZM3.71646 42.3607H2.26912V40.9134H3.71646V42.3607ZM3.71646 39.8596H2.26912V38.4122H3.71646V39.8596ZM3.71646 37.3584H2.26912V35.911H3.71646V37.3584ZM3.71646 34.8571H2.26912V33.4098H3.71646V34.8571ZM6.21768 42.3607H4.77034V40.9134H6.21768V42.3607ZM6.21768 39.8596H4.77034V38.4122H6.21768V39.8596ZM6.21768 37.3584H4.77034V35.911H6.21768V37.3584ZM6.21768 34.8571H4.77034V33.4098H6.21768V34.8571ZM6.21768 32.3559H4.77034V30.9086H6.21768V32.3559ZM8.71891 42.3607H7.27157V40.9134H8.71891V42.3607ZM8.71891 39.8596H7.27157V38.4122H8.71891V39.8596ZM8.71891 37.3584H7.27157V35.911H8.71891V37.3584ZM8.71891 34.8571H7.27157V33.4098H8.71891V34.8571ZM8.71891 32.3559H7.27157V30.9086H8.71891V32.3559ZM11.22 42.3607H9.77269V40.9134H11.22V42.3607ZM11.22 39.8596H9.77269V38.4122H11.22V39.8596ZM11.22 37.3584H9.77269V35.911H11.22V37.3584ZM11.22 34.8571H9.77269V33.4098H11.22V34.8571ZM11.22 32.3559H9.77269V30.9086H11.22V32.3559ZM13.7213 42.3607H12.2739V40.9134H13.7213V42.3607ZM13.7213 39.8596H12.2739V38.4122H13.7213V39.8596ZM13.7213 37.3584H12.2739V35.911H13.7213V37.3584ZM13.7213 34.8571H12.2739V33.4098H13.7213V34.8571ZM16.2225 42.3607H14.7751V40.9134H16.2225V42.3607ZM16.2225 39.8596H14.7751V38.4122H16.2225V39.8596ZM16.2225 37.3584H14.7751V35.911H16.2225V37.3584ZM16.2225 34.8571H14.7751V33.4098H16.2225V34.8571ZM18.7236 42.3607H17.2763V40.9134H18.7236V42.3607ZM18.7236 39.8596H17.2763V38.4122H18.7236V39.8596ZM18.7236 37.3584H17.2763V35.911H18.7236V37.3584ZM21.2248 42.3607H19.7775V40.9134H21.2248V42.3607ZM21.2248 39.8596H19.7775V38.4122H21.2248V39.8596ZM21.2248 37.3584H19.7775V35.911H21.2248V37.3584ZM21.2248 34.8571H19.7775V33.4098H21.2248V34.8571ZM23.7261 42.3607H22.2787V40.9134H23.7261V42.3607ZM23.7261 39.8596H22.2787V38.4122H23.7261V39.8596ZM23.7261 37.3584H22.2787V35.911H23.7261V37.3584ZM23.7261 34.8571H22.2787V33.4098H23.7261V34.8571ZM26.2273 42.3607H24.7799V40.9134H26.2273V42.3607ZM26.2273 39.8596H24.7799V38.4122H26.2273V39.8596ZM26.2273 37.3584H24.7799V35.911H26.2273V37.3584ZM26.2273 34.8571H24.7799V33.4098H26.2273V34.8571ZM26.2273 32.3559H24.7799V30.9086H26.2273V32.3559ZM28.7284 42.3607H27.2811V40.9134H28.7284V42.3607ZM28.7284 39.8596H27.2811V38.4122H28.7284V39.8596ZM28.7284 37.3584H27.2811V35.911H28.7284V37.3584ZM28.7284 34.8571H27.2811V33.4098H28.7284V34.8571ZM28.7284 32.3559H27.2811V30.9086H28.7284V32.3559ZM31.2296 42.3607H29.7823V40.9134H31.2296V42.3607ZM31.2296 39.8596H29.7823V38.4122H31.2296V39.8596ZM31.2296 37.3584H29.7823V35.911H31.2296V37.3584ZM31.2296 34.8571H29.7823V33.4098H31.2296V34.8571ZM31.2296 32.3559H29.7823V30.9086H31.2296V32.3559ZM33.7309 42.3607H32.2835V40.9134H33.7309V42.3607ZM33.7309 39.8596H32.2835V38.4122H33.7309V39.8596ZM33.7309 37.3584H32.2835V35.911H33.7309V37.3584ZM33.7309 34.8571H32.2835V33.4098H33.7309V34.8571Z" fill="#E95F43"/>
<path d="M18 33.4579L15.1277 36.3302C14.8286 36.6293 14.333 36.5904 14.0842 36.2483L9.05084 29.3274L10.6542 27.7241C10.9131 27.4652 11.3293 27.4543 11.6014 27.6992L18 33.4579Z" fill="#FFBE1E"/>
<path d="M18 33.4579L20.8723 36.3302C21.1714 36.6293 21.6669 36.5904 21.9158 36.2483L26.9491 29.3274L25.3458 27.7241C25.0869 27.4652 24.6706 27.4543 24.3985 27.6992L18 33.4579Z" fill="#FFBE1E"/>
<path d="M8.79171 12.317C8.63071 13.2909 8.62192 14.4618 8.62192 15.8533C8.62192 21.3661 11.7108 28.2445 18.0001 28.2445C24.2894 28.2445 27.3782 21.3661 27.3782 15.8533C27.3782 14.4617 27.3695 13.2909 27.2085 12.317C24.6855 11.4668 21.4852 10.957 18.0002 10.957C14.5152 10.957 11.3146 11.4667 8.79171 12.317Z" fill="#FFE1B2"/>
<path d="M27.4134 13.4306C26.8624 12.7235 26.2715 11.9969 26.2715 11.9969V12.6853C26.4422 18.9239 24.2223 21.6344 24.2223 21.6344L21.3937 21.9511C19.1878 22.1981 16.9616 22.1981 14.7557 21.9511L11.9271 21.6344C11.9271 21.6344 9.70722 18.9239 9.87795 12.6853V11.9969C9.87795 11.9969 9.28698 12.7234 8.73597 13.4306C8.59244 14.0446 8.3624 14.7121 8.3624 15.4448C8.3624 20.9576 11.6615 28.9057 18.0747 28.9057C24.4879 28.9057 27.6375 20.9576 27.6375 15.4448C27.6376 14.7121 27.5571 14.0446 27.4134 13.4306ZM16.0255 23.2695H20.1239C20.6858 23.2695 21.1675 23.6119 21.3774 24.1005C20.6207 24.4324 19.4593 24.6462 18.1501 24.6462C16.7679 24.6462 15.553 24.4073 14.803 24.0431C15.0254 23.5865 15.4867 23.2695 16.0255 23.2695Z" fill="#A7795E"/>
<path d="M18.3657 22.6571C18.3657 21.7481 17.4837 21.5424 16.9029 21.7627C15.838 22.1666 14.6656 23.2934 13.6761 22.5966C13.6761 22.5966 14.0202 24.051 14.601 24.051C15.7626 24.0509 18.3657 24.2025 18.3657 22.6571Z" fill="#543D38"/>
<path d="M18.0873 22.6571C18.0873 21.7481 18.9693 21.5424 19.5502 21.7627C20.615 22.1666 21.7875 23.2934 22.777 22.5966C22.777 22.5966 22.4328 24.051 21.8521 24.051C20.6905 24.0509 18.0873 24.2025 18.0873 22.6571Z" fill="#543D38"/>
<path d="M29.7028 30.2536L26.9492 29.3724V37.843C26.9492 38.1581 26.7401 38.4366 26.4342 38.512C24.1039 39.0859 21.1809 39.4294 18.0001 39.4294C14.8193 39.4294 11.8963 39.0859 9.56597 38.512C9.25997 38.4366 9.05095 38.1581 9.05095 37.843V29.3724L6.29739 30.2536V44H29.7029V30.2536H29.7028Z" fill="#C55F54"/>
<path d="M8.40864 17.061L10.2675 17.4037C10.2675 17.4037 10.9935 13.3329 11.3826 11.6417C10.3673 11.8444 9.4098 12.0881 8.53689 12.3743C8.37139 13.3482 8.3624 14.5191 8.3624 15.9106C8.3625 16.2885 8.37882 16.6731 8.40864 17.061Z" fill="#543D38"/>
<path d="M27.5914 17.061L25.7325 17.4037C25.7325 17.4037 25.0065 13.3329 24.6174 11.6417C25.6327 11.8444 26.5902 12.0881 27.4631 12.3743C27.6286 13.3482 27.6376 14.5191 27.6376 15.9106C27.6376 16.2885 27.6212 16.6731 27.5914 17.061Z" fill="#543D38"/>
<path d="M22.0444 13.3234L23.6961 11.4432C21.9426 11.1331 20.022 10.957 18 10.957C16.7694 10.957 15.5771 11.0237 14.4348 11.1433C15.5146 11.0695 19.764 11.6417 22.0444 13.3234Z" fill="#543D38"/>
</svg>
