<svg width="56" height="56" viewBox="0 0 56 56" fill="none" xmlns="http://www.w3.org/2000/svg">
<path d="M46.6666 26.1333V32.6666C46.6666 41.16 37.3333 46.6666 30.268 42.4293L24.668 39.06C23.8013 38.5352 22.8064 38.2607 21.7933 38.2666C20.5258 38.1774 19.2639 38.5052 18.2 39.2C16.4617 40.3595 14.2285 40.4755 12.3795 39.5023C10.5304 38.5291 9.36167 36.6226 9.33331 34.5333V28C9.33331 29.1946 9.72531 28.8866 10.444 29.8666C11.5444 31.3236 13.286 32.1525 15.1106 32.088C18.032 32.088 18.3493 30.2213 21.2706 30.2213C22.4482 30.1376 23.6234 30.4143 24.64 31.0146L30.24 34.0013C34.1693 36.3626 39.1066 35.9613 43.3626 31.7053C45.416 29.708 46.6666 29.232 46.6666 26.1333Z" fill="#DF4D60"/>
<path d="M46.6666 26.1333C46.6666 34.9533 37.0626 39.984 30.268 35.896L24.668 32.5266C23.6459 31.9231 22.4638 31.6463 21.28 31.7333C18.3586 31.7333 18.0413 33.6 15.12 33.6C13.6027 33.6506 12.1299 33.083 11.039 32.0273C9.94802 30.9715 9.33247 29.5181 9.33331 28V27.0666C9.33331 17.7333 21.4666 12.1333 30.8 12.1333C41.0666 12.1333 46.6666 18.4053 46.6666 26.1333Z" fill="#FB7B76"/>
<path d="M29.8667 16.8C29.3689 16.8006 28.9582 16.4105 28.9334 15.9133C28.9206 15.6578 29.0132 15.4083 29.1897 15.223C29.3661 15.0377 29.6109 14.933 29.8667 14.9334H30.8C31.3155 14.9334 31.7334 15.3512 31.7334 15.8667C31.7334 16.3821 31.3155 16.8 30.8 16.8H29.8667Z" fill="white"/>
<path d="M13.6827 25.2C13.5506 25.1994 13.4202 25.1708 13.3 25.116C12.8317 24.9039 12.6231 24.3531 12.8333 23.884C14.9053 19.2827 20.9627 16.52 25.9 15.484C26.4155 15.3757 26.9211 15.7059 27.0293 16.2213C27.1376 16.7368 26.8075 17.2424 26.292 17.3507C20.5987 18.5547 15.9693 21.4387 14.4947 24.7053C14.3346 25.0061 14.0233 25.1957 13.6827 25.2Z" fill="white"/>
<path d="M36.4 27.0666C38.4619 27.0666 40.1334 25.3952 40.1334 23.3333C40.1334 21.2714 38.4619 19.6 36.4 19.6C34.3382 19.6 32.6667 21.2714 32.6667 23.3333C32.6667 25.3952 34.3382 27.0666 36.4 27.0666Z" fill="#F5EFCA"/>
<path d="M28 56C12.536 56 0 43.464 0 28C0 12.536 12.536 0 28 0C43.464 0 56 12.536 56 28C56 35.4261 53.05 42.548 47.799 47.799C42.548 53.05 35.4261 56 28 56ZM28 1.86667C13.567 1.86667 1.86667 13.567 1.86667 28C1.86667 42.433 13.567 54.1333 28 54.1333C42.433 54.1333 54.1333 42.433 54.1333 28C54.1333 13.567 42.433 1.86667 28 1.86667Z" fill="#E64C3C"/>
<path d="M47.1426 48.076C46.8946 48.0774 46.6561 47.98 46.48 47.8053L8.21332 9.53865C7.97323 9.30523 7.87591 8.96147 7.95801 8.63684C8.04011 8.31222 8.28916 8.05606 8.61135 7.96484C8.93353 7.87363 9.2799 7.96123 9.51998 8.19465L47.7867 46.4613C47.9633 46.6366 48.0627 46.8751 48.0627 47.124C48.0627 47.3728 47.9633 47.6114 47.7867 47.7867C47.6181 47.9637 47.3869 48.0676 47.1426 48.076Z" fill="#E64C3C"/>
</svg>
