<svg width="56" height="56" viewBox="0 0 56 56" fill="none" xmlns="http://www.w3.org/2000/svg">
<path d="M30.9438 23.1142C30.5213 23.5601 29.924 23.795 29.3096 23.757C29.0971 23.7435 24.0455 23.3963 18.8786 20.612C13.996 17.9809 8.10402 12.6421 7.76189 2.14911C7.74308 1.57686 7.96216 1.02254 8.36684 0.617639C8.98416 0 9.70865 0 10.0181 0C10.0182 0 10.0182 0 10.0182 0C10.237 0 15.3825 0.0369686 20.6842 3.21595C23.4364 4.8663 25.7245 7.06025 27.4852 9.73709C29.6122 12.9709 30.9618 16.9109 31.4969 21.4474C31.5689 22.0577 31.3662 22.6681 30.9438 23.1142Z" fill="#6DC82A"/>
<path d="M27.5501 9.83966C26.6818 11.442 25.9496 13.2467 25.4241 15.2797C24.9516 16.6909 24.2301 19.1702 23.6346 22.6005C26.7757 23.5836 29.1649 23.7479 29.3096 23.757C29.924 23.7951 30.5212 23.5602 30.9438 23.1142C31.3662 22.6681 31.5688 22.0577 31.4968 21.4476C30.9673 16.9583 29.6387 13.0543 27.5501 9.83966Z" fill="#5EAC24"/>
<path d="M29.1674 19.5622L24.7062 15.2118L23.5298 9.34957C23.4367 8.88494 22.9847 8.58427 22.52 8.67724C22.0553 8.77043 21.7545 9.22269 21.8476 9.6871L22.5307 13.0904L20.0703 10.6912L18.8777 4.74828C18.7846 4.28365 18.3323 3.98331 17.8678 4.07595C17.4032 4.16914 17.1024 4.62129 17.1955 5.08581L17.8946 8.56961L12.1533 2.97138C11.8138 2.64063 11.2711 2.64763 10.9402 2.98669C10.6095 3.32597 10.6164 3.86901 10.9555 4.19965L17.2685 10.3557L12.8647 10.2805C12.3914 10.2675 12.0005 10.6498 11.9923 11.1235C11.9843 11.5972 12.3617 11.9877 12.8354 11.9959L19.0596 12.1023L21.9881 14.9581L17.5168 14.8819C17.0474 14.8714 16.6527 15.2512 16.6444 15.7249C16.6365 16.1986 17.0138 16.5891 17.4875 16.5973L23.779 16.7047L27.9692 20.7907C28.1361 20.9534 28.3521 21.0343 28.5679 21.0343C28.7911 21.0343 29.014 20.9477 29.1823 20.7753C29.5134 20.4359 29.5066 19.8929 29.1674 19.5622Z" fill="#4E901E"/>
<path d="M51.1681 0.646797C50.7456 0.200876 50.1483 -0.0340611 49.534 0.00400135C49.3215 0.0174544 44.2699 0.36472 39.103 3.14896C35.1326 5.28844 30.4951 9.2185 28.7167 16.2541C27.7453 19.1146 25.6054 26.872 26.1059 38.5522C26.1492 39.5627 26.982 40.3528 27.9839 40.3527C28.011 40.3527 28.0383 40.3521 28.0658 40.3509C29.1037 40.3064 29.909 39.4291 29.8646 38.3911C29.6052 32.3401 30.1034 27.3934 30.7455 23.7433C32.1902 23.6605 36.4949 23.1915 40.9086 20.545C43.6608 18.8947 45.9489 16.7007 47.7096 14.0239C49.8365 10.7901 51.1862 6.8501 51.7213 2.31356C51.7932 1.70325 51.5906 1.09283 51.1681 0.646797Z" fill="#91DC5A"/>
<path d="M48.4671 2.98673C48.1362 2.64756 47.5931 2.64067 47.254 2.97142L41.5132 8.56955L42.2123 5.08585C42.3054 4.62134 42.0046 4.16929 41.54 4.07599C41.076 3.98324 40.6233 4.2837 40.5301 4.74832L39.3374 10.6912L36.8771 13.0904L37.5602 9.68714C37.6533 9.22262 37.3525 8.77058 36.8878 8.67728C36.4234 8.58431 35.9712 8.88498 35.878 9.34961L34.7014 15.212L30.2401 19.5624C29.9009 19.8931 29.8942 20.4362 30.2248 20.7753C30.3931 20.9477 30.6158 21.0342 30.8392 21.0342C31.0551 21.0342 31.2712 20.9533 31.4379 20.7906L35.6282 16.7046L41.9198 16.5972C42.3935 16.5891 42.7709 16.1987 42.7629 15.7248C42.7549 15.2561 42.3724 14.8817 41.9055 14.8817C41.9005 14.8817 41.8955 14.8817 41.8905 14.8818L37.4192 14.958L40.3477 12.1022L46.5719 11.9958C47.0456 11.9877 47.4229 11.5973 47.4149 11.1234C47.407 10.6547 47.0245 10.2803 46.5576 10.2803C46.5525 10.2803 46.5475 10.2803 46.5426 10.2804L42.1387 10.3556L48.4517 4.19959C48.7911 3.86895 48.7979 3.3259 48.4671 2.98673Z" fill="#5EAC24"/>
<path d="M49.1304 44.8573C48.2652 44.8573 47.4572 45.101 46.7704 45.5231C45.7561 42.2044 42.6698 39.7903 39.0191 39.7903C38.614 39.7903 38.2162 39.8209 37.8272 39.8783C36.1723 36.0924 32.3962 33.4457 28.0003 33.4457C23.6044 33.4457 19.8282 36.0924 18.1734 39.8783C17.7842 39.8209 17.3863 39.7903 16.9814 39.7903C13.3307 39.7903 10.2446 42.2044 9.23014 45.5231C8.54337 45.101 7.73542 44.8573 6.87016 44.8573C4.37696 44.8573 2.35571 46.8786 2.35571 49.3718C2.35571 51.865 4.37696 53.8862 6.87016 53.8862C8.20628 53.8862 9.40634 53.3054 10.2328 52.383C11.6855 54.5629 14.1652 56 16.9813 56C19.2619 56 21.3213 55.0566 22.7939 53.5405C24.3358 54.3989 26.1103 54.8895 28.0003 54.8895C29.8902 54.8895 31.6648 54.3988 33.2066 53.5405C34.6795 55.0566 36.7387 56 39.0192 56C41.8353 56 44.3152 54.5631 45.7678 52.383C46.5943 53.3054 47.7944 53.8862 49.1304 53.8862C51.6236 53.8862 53.6448 51.865 53.6448 49.3718C53.6448 46.8785 51.6236 44.8573 49.1304 44.8573Z" fill="#CC7400"/>
<path d="M33.894 37.8347C34.9601 37.8347 35.9889 37.9925 36.961 38.2823C35.0442 35.3696 31.7476 33.4456 28.0002 33.4456C23.6042 33.4456 19.8281 36.0924 18.1733 39.8783C17.7841 39.8209 17.3862 39.7902 16.9813 39.7902C13.3306 39.7902 10.2445 42.2043 9.23005 45.523C8.54328 45.1009 7.73533 44.8572 6.87007 44.8572C4.37687 44.8572 2.35562 46.8785 2.35562 49.3717C2.35562 51.8649 4.37687 53.8861 6.87007 53.8861C8.20619 53.8861 9.40625 53.3053 10.2327 52.3829C11.6854 54.5628 14.1651 55.9999 16.9812 55.9999C19.2618 55.9999 21.3212 55.0565 22.7938 53.5404C23.4663 53.9148 24.1829 54.2189 24.934 54.4433C23.8214 52.7533 23.1722 50.7312 23.1722 48.5566C23.1722 42.6352 27.9725 37.8347 33.894 37.8347Z" fill="#AA6100"/>
<path d="M32.2641 47.992C33.3375 47.992 34.2077 47.1218 34.2077 46.0483C34.2077 44.9748 33.3375 44.1046 32.2641 44.1046C31.1906 44.1046 30.3204 44.9748 30.3204 46.0483C30.3204 47.1218 31.1906 47.992 32.2641 47.992Z" fill="#AA6100"/>
<path d="M40.101 52.5692C41.1745 52.5692 42.0447 51.699 42.0447 50.6255C42.0447 49.552 41.1745 48.6818 40.101 48.6818C39.0275 48.6818 38.1573 49.552 38.1573 50.6255C38.1573 51.699 39.0275 52.5692 40.101 52.5692Z" fill="#AA6100"/>
<path d="M38.9057 44.7226C39.3188 44.7226 39.6536 44.3877 39.6536 43.9746C39.6536 43.5616 39.3188 43.2267 38.9057 43.2267C38.4927 43.2267 38.1578 43.5616 38.1578 43.9746C38.1578 44.3877 38.4927 44.7226 38.9057 44.7226Z" fill="#AA6100"/>
<path d="M28.0002 52.1215C28.4132 52.1215 28.7481 51.7866 28.7481 51.3736C28.7481 50.9605 28.4132 50.6257 28.0002 50.6257C27.5871 50.6257 27.2523 50.9605 27.2523 51.3736C27.2523 51.7866 27.5871 52.1215 28.0002 52.1215Z" fill="#AA6100"/>
<path d="M30.3197 41.9273C30.7327 41.9273 31.0676 41.5924 31.0676 41.1794C31.0676 40.7663 30.7327 40.4315 30.3197 40.4315C29.9066 40.4315 29.5718 40.7663 29.5718 41.1794C29.5718 41.5924 29.9066 41.9273 30.3197 41.9273Z" fill="#AA6100"/>
<path d="M46.4133 48.7406C46.8264 48.7406 47.1612 48.4058 47.1612 47.9927C47.1612 47.5797 46.8264 47.2448 46.4133 47.2448C46.0003 47.2448 45.6654 47.5797 45.6654 47.9927C45.6654 48.4058 46.0003 48.7406 46.4133 48.7406Z" fill="#AA6100"/>
<path d="M42.0453 36.6391C43.1188 36.6391 43.989 35.7689 43.989 34.6954C43.989 33.6219 43.1188 32.7517 42.0453 32.7517C40.9718 32.7517 40.1016 33.6219 40.1016 34.6954C40.1016 35.7689 40.9718 36.6391 42.0453 36.6391Z" fill="#CC7400"/>
<path d="M46.4133 39.7895C46.8264 39.7895 47.1612 39.4547 47.1612 39.0416C47.1612 38.6286 46.8264 38.2937 46.4133 38.2937C46.0003 38.2937 45.6654 38.6286 45.6654 39.0416C45.6654 39.4547 46.0003 39.7895 46.4133 39.7895Z" fill="#CC7400"/>
<path d="M46.4133 36.1913C46.8264 36.1913 47.1612 35.8565 47.1612 35.4434C47.1612 35.0303 46.8264 34.6955 46.4133 34.6955C46.0003 34.6955 45.6654 35.0303 45.6654 35.4434C45.6654 35.8565 46.0003 36.1913 46.4133 36.1913Z" fill="#CC7400"/>
<path d="M12.308 35.9529C13.3814 35.9529 14.2517 35.0827 14.2517 34.0092C14.2517 32.9357 13.3814 32.0655 12.308 32.0655C11.2345 32.0655 10.3643 32.9357 10.3643 34.0092C10.3643 35.0827 11.2345 35.9529 12.308 35.9529Z" fill="#AA6100"/>
<path d="M9.0803 39.0416C9.49336 39.0416 9.82821 38.7068 9.82821 38.2937C9.82821 37.8807 9.49336 37.5458 9.0803 37.5458C8.66725 37.5458 8.3324 37.8807 8.3324 38.2937C8.3324 38.7068 8.66725 39.0416 9.0803 39.0416Z" fill="#AA6100"/>
</svg>
